<svg xmlns="http://www.w3.org/2000/svg" viewBox="1355.339 1431.581 91.02 68.294">
  <defs>
    <style>
      .cls-1 {
        fill: #1d3344;
      }
    </style>
  </defs>
  <g id="code" transform="translate(1355.339 1431.581)">
    <g id="Group_8" data-name="Group 8" transform="translate(0 0)">
      <path id="Path_4" data-name="Path 4" class="cls-1" d="M213.645,66.146,210.56,65.3a1.389,1.389,0,0,0-1.168.125,1.618,1.618,0,0,0-.772.97l-18.552,64.212a1.49,1.49,0,0,0,.125,1.219,1.615,1.615,0,0,0,.97.771l3.084.846a1.385,1.385,0,0,0,1.169-.124,1.619,1.619,0,0,0,.771-.969l18.553-64.213a1.491,1.491,0,0,0-.125-1.219A1.614,1.614,0,0,0,213.645,66.146Z" transform="translate(-156.893 -65.225)"/>
      <path id="Path_5" data-name="Path 5" class="cls-1" d="M28.948,122.894a1.573,1.573,0,0,0-.5-1.144l-2.487-2.487a1.564,1.564,0,0,0-2.288,0L.5,142.44a1.564,1.564,0,0,0,0,2.288l23.178,23.178a1.565,1.565,0,0,0,2.288,0l2.487-2.486a1.564,1.564,0,0,0,0-2.288L8.9,143.585l19.547-19.547A1.571,1.571,0,0,0,28.948,122.894Z" transform="translate(0 -109.438)"/>
      <path id="Path_6" data-name="Path 6" class="cls-1" d="M384.761,142.437,361.583,119.26a1.564,1.564,0,0,0-2.288,0l-2.486,2.487a1.566,1.566,0,0,0,0,2.288l19.548,19.547L356.809,163.13a1.566,1.566,0,0,0,0,2.288l2.486,2.486a1.565,1.565,0,0,0,2.288,0l23.178-23.178a1.565,1.565,0,0,0,0-2.289Z" transform="translate(-294.239 -109.435)"/>
    </g>
  </g>
</svg>
