<svg xmlns="http://www.w3.org/2000/svg" viewBox="772.157 1441.744 82.482 58.526">
  <defs>
    <style>
      .cls-1 {
        fill: #1d3344;
      }
    </style>
  </defs>
  <path id="video-camera" class="cls-1" d="M79.968,20.073a5.428,5.428,0,0,0-5.221-.357L63.67,24.828v-.19a4.791,4.791,0,0,0-4.785-4.785H52.094V12.618a4.346,4.346,0,0,0-4.341-4.341H1.447a1.447,1.447,0,1,0,0,2.894H47.752A1.449,1.449,0,0,1,49.2,12.618v7.235H4.785A4.792,4.792,0,0,0,0,24.639V61.375A4.791,4.791,0,0,0,4.785,66.16h54.1a4.79,4.79,0,0,0,4.785-4.785v-.19L74.747,66.3a5.45,5.45,0,0,0,7.734-4.947V24.665A5.426,5.426,0,0,0,79.968,20.073Zm-19.192,41.3a1.893,1.893,0,0,1-1.891,1.891H4.785a1.893,1.893,0,0,1-1.891-1.891V24.639a1.893,1.893,0,0,1,1.891-1.891h54.1a1.893,1.893,0,0,1,1.891,1.891V61.375Zm18.812-.025a2.554,2.554,0,0,1-3.626,2.32L63.67,58V28.015l12.29-5.671a2.556,2.556,0,0,1,3.628,2.321Z" transform="translate(772.157 1433.467)"/>
</svg>
